<?xml version="1.0" ?><svg style="enable-background:new 0 0 256 256;" version="1.1" viewBox="0 0 256 256" xml:space="preserve" xmlns="http://www.w3.org/2000/svg" xmlns:xlink="http://www.w3.org/1999/xlink"><style type="text/css">
	.st0{fill:#D5E2EB;}
	.st1{fill:none;stroke:#00A388;stroke-width:4;stroke-miterlimit:10;}
	.st2{fill:#FFFFFF;}
	.st3{fill:#CC4E47;}
	.st4{fill:#EA685E;}
	.st5{fill:#4B687F;}
	.st6{fill:#2C3E50;}
	.st7{fill:#3E5063;}
	.st8{fill:#FFAB80;}
	.st9{filter:url(#Adobe_OpacityMaskFilter);}
	.st10{mask:url(#SVGID_2_);}
	.st11{fill:#F09A79;}
	.st12{fill:#00886F;}
	.st13{fill:#00A388;}
	.st14{fill:none;stroke:#3E5063;stroke-width:4;stroke-miterlimit:10;}
	.st15{fill:#FFD766;}
	.st16{fill:#5488B7;}
	.st17{fill:#8C623B;}
	.st18{fill:#E6E6E6;stroke:#3E5063;stroke-width:16;stroke-miterlimit:10;}
	.st19{opacity:0.6;}
	.st20{fill:#E6E6E6;}
	.st21{fill:none;stroke:#D5E2EB;stroke-width:5;stroke-miterlimit:10;}
	.st22{fill:#FFEC9F;}
	.st23{fill:#603813;}
	.st24{filter:url(#Adobe_OpacityMaskFilter_1_);}
	.st25{mask:url(#SVGID_1_);}
</style><g id="Layer_2"><circle class="st0" cx="128" cy="128" r="120"/></g><g id="Layer_1"><g><g><g><path class="st3" d="M185.90096,142.36325l-0.57393,7.48424c0,15.40097-10.49525,29.3475-26.17136,39.44186      C144.47801,198.74687,129.80029,204.8239,128,205.55502c-0.89624-0.36948-5.01572-2.06757-10.74684-4.85847      c-5.73116-2.79088-13.07391-6.67453-20.40882-11.4072c-15.6761-10.09436-26.17137-24.04089-26.17137-39.44186l-0.57393-7.48424      c1.77674,14.13521,11.87897,26.83171,26.28149,36.26567c7.45282,4.87422,14.89777,8.8837,20.70752,11.76889      c5.81763,2.88521,10.00003,4.6384,10.91196,5.01573c1.83177-0.75473,16.72171-7.02831,31.61948-16.78462      C174.02199,169.19496,184.12422,156.49846,185.90096,142.36325z"/></g><g><path class="st4" d="M172.33177,55.09909c0-0.44812,0.01569-0.88837,0.03143-1.32862l-20.31444-2.08335      c-7.93242-0.81759-15.89626-1.22641-23.86797-1.24215h-0.3616c-7.97171,0.01574-15.93555,0.42456-23.86796,1.24215      L83.6368,53.77048c0.01574,0.44025,0.03143,0.8805,0.03143,1.32862c0,12.36634-7.57076,22.89308-18.16823,26.88675      l4.3475,57.02833c0.03143,1.11635,0.1179,2.22482,0.25153,3.32547v0.02361      c1.77674,14.13521,11.87897,26.83171,26.28149,36.26567c7.45282,4.87422,14.89777,8.8837,20.70752,11.76889      c5.81763,2.88521,10.00003,4.6384,10.91196,5.01573c1.83177-0.75473,16.72171-7.02831,31.61948-16.78462      c14.40251-9.43396,24.50475-22.13046,26.28148-36.26567v-0.02361c0.13364-1.10065,0.22011-2.20912,0.25154-3.32547      L190.5,81.98585C179.90253,77.99217,172.33177,67.46543,172.33177,55.09909z"/></g></g><g><circle class="st3" cx="128" cy="122.92926" r="37"/></g><g><circle class="st2" cx="128" cy="118.92926" r="37"/></g><g><polygon class="st13" points="152.05,111.4719 135.26785,111.4719 135.26785,94.68976 120.73214,94.68976 120.73214,111.4719      103.95,111.4719 103.95,126.00761 120.73214,126.00761 120.73214,142.78975 135.26785,142.78975 135.26785,126.00761      152.05,126.00761    "/></g></g></g></svg>